<svg width="24" height="24" viewBox="0 0 24 24" fill="none" xmlns="http://www.w3.org/2000/svg">
<path fill-rule="evenodd" clip-rule="evenodd" d="M0 12C0 5.37258 5.37258 0 12 0C18.6274 0 24 5.37258 24 12C24 18.6274 18.6274 24 12 24C5.37258 24 0 18.6274 0 12ZM18.4 11.9911C18.4 11.558 18.3559 11.1248 18.2694 10.7045C18.185 10.2931 18.06 9.88872 17.8962 9.50332C17.7362 9.12389 17.5378 8.75813 17.3059 8.41734C17.0775 8.07845 16.8143 7.76137 16.5253 7.47145C16.2356 7.18309 15.9168 6.92129 15.5783 6.69224C15.2365 6.46099 14.8705 6.26282 14.4911 6.10181C14.1045 5.93859 13.6998 5.81347 13.2888 5.72982C12.867 5.6437 12.4332 5.6 11.9997 5.6C11.566 5.6 11.1322 5.6437 10.7109 5.72982C10.2993 5.81345 9.89464 5.93857 9.50836 6.10181C9.12898 6.26285 8.76269 6.46099 8.42081 6.69224C8.08235 6.92129 7.76359 7.18309 7.47451 7.47145C7.18513 7.76137 6.92198 8.07845 6.69322 8.41734C6.46258 8.75813 6.26381 9.12386 6.10318 9.50332C5.93941 9.88872 5.8141 10.2931 5.72941 10.7045C5.64374 11.1248 5.6 11.558 5.6 11.9911C5.6 12.4239 5.64376 12.8562 5.72938 13.2775C5.81408 13.6888 5.93938 14.0926 6.10316 14.4786C6.26378 14.8578 6.46255 15.2232 6.69319 15.564C6.92195 15.9026 7.1851 16.2203 7.47448 16.5098C7.76356 16.7982 8.08233 17.0606 8.42078 17.29C8.76267 17.5203 9.12895 17.7185 9.50834 17.8792C9.89461 18.0421 10.2993 18.1669 10.7109 18.2512C11.1322 18.3379 11.5659 18.3822 11.9997 18.3822C12.4332 18.3822 12.867 18.3379 13.2888 18.2512C13.6998 18.1669 14.1045 18.0421 14.4911 17.8792C14.8705 17.7185 15.2364 17.5203 15.5783 17.29C15.9168 17.0606 16.2355 16.7982 16.5252 16.5098C16.8143 16.2203 17.0775 15.9026 17.3059 15.564C17.5378 15.2232 17.7362 14.8578 17.8962 14.4786C18.06 14.0926 18.185 13.6888 18.2694 13.2775C18.3559 12.8562 18.4 12.4239 18.4 11.9911Z" fill="white"/>
<path fill-rule="evenodd" clip-rule="evenodd" d="M13.1757 10.6836C15.3336 9.80352 16.2103 8.53871 16.2206 8.52407C16.9875 9.4537 17.4509 10.6411 17.4634 11.9349C17.3844 11.9187 15.5346 11.5218 13.657 11.7577C13.6186 11.6641 13.5792 11.5705 13.5388 11.475C13.4254 11.2087 13.3026 10.9438 13.1757 10.6836ZM15.0539 16.5173C14.9983 16.1884 14.707 14.5863 13.9901 12.619C15.7543 12.3365 17.2834 12.8199 17.3959 12.8561C17.1528 14.3772 16.2812 15.6904 15.0539 16.5173ZM12.966 12.8718C13.7351 14.8677 14.0526 16.5392 14.1335 17.016C13.4776 17.2946 12.7566 17.4485 11.9997 17.4485C10.7321 17.4485 9.56833 17.0138 8.64045 16.2933C8.65185 16.2686 9.70495 14.0062 12.9298 12.8836C12.9417 12.8793 12.9538 12.8758 12.966 12.8718ZM15.6093 7.89494C15.5958 7.9149 14.8174 9.09827 12.7551 9.87031C11.8203 8.15647 10.7937 6.7965 10.7118 6.68664C11.1247 6.58741 11.5556 6.53373 11.9997 6.53373C13.3835 6.53373 14.647 7.04767 15.6093 7.89494ZM12.15 11.04C12.3066 11.3464 12.4563 11.6572 12.5935 11.9674C12.5216 11.988 12.4491 12.0092 12.3778 12.033C9.42833 12.9854 7.9326 15.6351 7.93448 15.6379C7.06381 14.6714 6.5341 13.3932 6.5341 11.9911C6.5341 11.9324 6.5369 11.8757 6.53848 11.817C6.63535 11.8207 9.33582 11.8813 12.15 11.04ZM9.66771 7.05454C9.74053 7.15162 10.7512 8.52125 11.6972 10.1995C9.07299 10.8958 6.79537 10.8671 6.65128 10.8658C7.006 9.17566 8.14355 7.77325 9.66771 7.05454Z" fill="white"/>
</svg>
