<svg width="40" height="40" viewBox="0 0 40 40" fill="none" xmlns="http://www.w3.org/2000/svg">
<rect width="40" height="40" rx="20" fill="#F34161"/>
<path d="M20.0002 15.0184C18.4296 13.6113 16.0143 13.6623 14.5051 15.1716C12.943 16.7337 12.943 19.2663 14.5051 20.8284L19.0574 25.3807C19.5781 25.9014 20.4223 25.9014 20.943 25.3807L25.4953 20.8284C27.0574 19.2663 27.0574 16.7337 25.4953 15.1716C23.986 13.6623 21.5707 13.6113 20.0002 15.0184ZM19.2191 16.1144L19.5288 16.424C19.7891 16.6844 20.2112 16.6844 20.4716 16.424L20.7812 16.1144C21.8226 15.073 23.5111 15.073 24.5525 16.1144C25.5938 17.1558 25.5938 18.8442 24.5525 19.8856L20.0002 24.4379L15.4479 19.8856C14.4065 18.8442 14.4065 17.1558 15.4479 16.1144C16.4893 15.073 18.1777 15.073 19.2191 16.1144Z" fill="white"/>
</svg>
